<svg width="16" height="16" viewBox="0 0 16 16" fill="none" xmlns="http://www.w3.org/2000/svg">
<path d="M15.8866 8.17781C15.8873 7.63297 15.8409 7.08908 15.7479 6.55212H8.15552V9.63137H12.5041C12.4151 10.1232 12.2268 10.592 11.9504 11.0096C11.6741 11.4271 11.3155 11.7848 10.8962 12.061V14.0598H13.4915C15.0111 12.6684 15.8866 10.6108 15.8866 8.17781Z" fill="#4285F4"/>
<path d="M8.15539 15.9911C10.328 15.9911 12.1573 15.2826 13.4913 14.0612L10.896 12.0624C10.1737 12.5487 9.24338 12.8263 8.15539 12.8263C6.05545 12.8263 4.27308 11.4205 3.63572 9.52612H0.962158V11.586C1.63224 12.9102 2.65975 14.0233 3.92996 14.8012C5.20017 15.5791 6.66308 15.991 8.15539 15.9911Z" fill="#34A853"/>
<path d="M3.63582 9.52587C3.29887 8.53319 3.29887 7.45819 3.63582 6.4655V4.40564H0.962255C0.398555 5.51958 0.10498 6.749 0.10498 7.99569C0.10498 9.24238 0.398555 10.4718 0.962255 11.5857L3.63582 9.52587Z" fill="#FBBC04"/>
<path d="M8.15539 3.16527C9.30352 3.14665 10.4129 3.57744 11.2438 4.36455L13.5416 2.0826C12.0846 0.723504 10.1543 -0.0226604 8.15539 0.000524557C6.66309 0.0005921 5.20017 0.412558 3.92996 1.19043C2.65975 1.9683 1.63224 3.08146 0.962158 4.40563L3.63572 6.4655C4.27308 4.57109 6.05545 3.16527 8.15539 3.16527Z" fill="#EA4335"/>
</svg>
