<svg width="76" height="21" viewBox="0 0 76 21" fill="none" xmlns="http://www.w3.org/2000/svg">
<path d="M76.0001 14.2277C76.0001 15.2187 75.5596 16.0288 74.6787 16.658C73.8136 17.2872 72.8226 17.6018 71.7058 17.6018C70.5889 17.6018 69.7002 17.3658 69.0395 16.8939C68.3946 16.422 68.0721 16.0052 68.0721 15.6434C68.0721 15.4232 68.3474 15.0693 68.898 14.5816C69.4485 14.0783 69.9126 13.7715 70.2901 13.6614C71.0766 14.2434 71.7215 15.1637 72.2249 16.422C72.8069 16.3749 73.0979 16.0996 73.0979 15.5962C73.0979 14.8726 72.4608 13.8502 71.1867 12.5289C69.9125 11.1918 69.2755 10.1301 69.2755 9.34356C69.2755 8.55706 69.6294 7.95146 70.3373 7.52675C71.0451 7.08631 71.8945 6.86609 72.8855 6.86609C73.8922 6.86609 74.6473 7.04698 75.1506 7.40877C75.654 7.75483 75.9057 8.2346 75.9057 8.84807C75.9057 9.44581 75.4259 10.2795 74.4664 11.3491C74.5765 11.4592 74.7181 11.6087 74.8911 11.7974C75.0641 11.9705 75.2922 12.3087 75.5753 12.812C75.8585 13.3154 76.0001 13.7873 76.0001 14.2277ZM73.7349 10.5233C74.3956 9.95703 74.7259 9.39862 74.7259 8.84807C74.7259 8.29752 74.3484 8.02224 73.5934 8.02224C73.2316 8.02224 72.9327 8.10089 72.6968 8.25819C72.4608 8.39976 72.3428 8.56493 72.3428 8.75369C72.3428 9.09974 72.6889 9.58737 73.381 10.2166L73.7349 10.5233Z" fill="black"/>
<path d="M57.3644 17.3894H56.9161C56.9161 16.6501 57.1364 15.2344 57.5768 13.1423C58.033 11.0503 58.2611 9.86265 58.2611 9.57951C58.2611 9.06042 58.0408 8.50987 57.6004 7.92786L57.388 7.64472L57.4116 7.33799C58.2611 7.10204 59.6217 6.98406 61.4936 6.98406C61.6981 7.25147 61.8082 7.7391 61.8239 8.44695C63.1924 7.39304 64.3486 6.86609 65.2924 6.86609C65.8586 6.86609 66.3069 7.06271 66.6373 7.45596C66.9833 7.84921 67.1564 8.34471 67.1564 8.94245C67.1564 9.52446 66.9755 10.539 66.6137 11.9862C66.2519 13.4334 66.071 14.4086 66.071 14.912C66.071 15.3996 66.1339 15.6434 66.2597 15.6434C66.3541 15.6434 66.6845 15.494 67.2507 15.1951L67.5339 15.0535L67.9586 15.8794C67.817 16.0052 67.6283 16.1625 67.3923 16.3513C67.1564 16.54 66.7159 16.7996 66.071 17.1299C65.4418 17.4445 64.8755 17.6018 64.3721 17.6018C63.2239 17.6018 62.6497 16.949 62.6497 15.6434C62.6497 15.0929 62.8227 14.0783 63.1688 12.5997C63.5306 11.121 63.7115 10.1694 63.7115 9.74467C63.7115 9.31997 63.5778 9.10761 63.3104 9.10761C62.8542 9.10761 62.2958 9.30423 61.6351 9.69748C61.5879 9.96489 61.4306 10.6727 61.1632 11.821C60.6127 14.2906 60.3374 16.0367 60.3374 17.0591C59.7869 17.2793 58.7959 17.3894 57.3644 17.3894Z" fill="black"/>
<path d="M47.2087 13.2367C47.2087 11.2705 47.7986 9.72108 48.9784 8.58852C50.1738 7.44023 51.5266 6.86609 53.0367 6.86609C53.9648 6.86609 54.7277 7.09417 55.3254 7.55034C55.9231 8.00651 56.222 8.61998 56.222 9.39075C56.222 10.1458 56.0254 10.7829 55.6321 11.3019C55.2546 11.821 54.7906 12.2221 54.24 12.5053C53.1232 13.0558 52.1008 13.4019 51.1727 13.5435L50.6064 13.6142C50.7165 15.0929 51.3221 15.8322 52.4232 15.8322C52.8007 15.8322 53.2019 15.7378 53.6266 15.549C54.0513 15.3603 54.3816 15.1715 54.6176 14.9828L54.9715 14.6996L55.5378 15.4547C55.4119 15.6277 55.1602 15.8558 54.7827 16.1389C54.4052 16.422 54.0513 16.658 53.721 16.8468C52.8086 17.3501 51.8098 17.6018 50.7244 17.6018C49.639 17.6018 48.7817 17.2164 48.1525 16.4456C47.5233 15.6749 47.2087 14.6052 47.2087 13.2367ZM50.5828 12.4581C51.3851 12.3165 52.0221 11.9783 52.494 11.4435C52.9659 10.9087 53.2019 10.2166 53.2019 9.36715C53.2019 8.51774 52.9502 8.09303 52.4468 8.09303C51.8491 8.09303 51.385 8.60425 51.0547 9.6267C50.7401 10.6334 50.5828 11.5772 50.5828 12.4581Z" fill="black"/>
<path d="M46.1003 16.1861C45.9115 16.6738 45.6127 17.0592 45.2037 17.3423C44.8104 17.6254 44.3385 17.767 43.788 17.767C43.2532 17.767 42.4431 17.4367 41.3577 16.776C40.2881 16.1154 39.4308 15.6907 38.7858 15.5019C38.3611 16.0682 37.8814 16.5401 37.3465 16.9176C36.8117 17.2951 36.4421 17.4839 36.2376 17.4839C36.0803 17.4839 35.7657 17.1457 35.2938 16.4693C34.8219 15.7772 34.5859 15.2817 34.5859 14.9828C34.5859 14.8098 34.8298 14.5502 35.3174 14.2042C35.8207 13.8581 36.3477 13.6222 36.8982 13.4963C37.2915 12.5368 37.7005 11.1211 38.1252 9.24923C38.5499 7.36163 38.8802 5.41898 39.1162 3.42127C39.1162 3.16959 39.0297 2.87073 38.8566 2.52467C38.6993 2.16288 38.5342 1.87187 38.3611 1.65165L38.1252 1.32132L38.196 0.967399C39.1398 0.699989 40.6892 0.566284 42.8442 0.566284C43.0487 0.912344 43.1509 1.4393 43.1509 2.14715C43.1509 2.855 42.9464 3.9089 42.5374 5.30887C42.1285 6.70884 41.5622 8.39195 40.8386 10.3582C40.1308 12.3087 39.7218 13.4649 39.6117 13.8267C39.6746 13.8424 39.8712 13.8974 40.2015 13.9918C40.5319 14.0862 40.7442 14.1491 40.8386 14.1806C40.9487 14.1963 41.1532 14.2435 41.4521 14.3221C41.7509 14.3851 41.9869 14.4323 42.1599 14.4637C42.333 14.4794 42.561 14.503 42.8442 14.5345C43.3318 14.6132 43.788 14.6525 44.2127 14.6525C44.6531 14.6525 44.9677 14.5424 45.1565 14.3221L45.8171 13.0952L46.5958 13.284C46.5958 14.3064 46.4306 15.2738 46.1003 16.1861Z" fill="black"/>
<path d="M25.9641 13.2367C25.9641 11.2705 26.554 9.72108 27.7337 8.58852C28.9292 7.44023 30.282 6.86609 31.7921 6.86609C32.7201 6.86609 33.483 7.09417 34.0808 7.55034C34.6785 8.00651 34.9774 8.61998 34.9774 9.39075C34.9774 10.1458 34.7808 10.7829 34.3875 11.3019C34.01 11.821 33.546 12.2221 32.9954 12.5053C31.8786 13.0558 30.8561 13.4019 29.9281 13.5435L29.3618 13.6142C29.4719 15.0929 30.0775 15.8322 31.1786 15.8322C31.5561 15.8322 31.9572 15.7378 32.3819 15.549C32.8067 15.3603 33.137 15.1715 33.3729 14.9828L33.7269 14.6996L34.2931 15.4547C34.1673 15.6277 33.9156 15.8558 33.5381 16.1389C33.1606 16.422 32.8066 16.658 32.4763 16.8468C31.564 17.3501 30.5651 17.6018 29.4798 17.6018C28.3944 17.6018 27.5371 17.2164 26.9079 16.4456C26.2787 15.6749 25.9641 14.6052 25.9641 13.2367ZM29.3382 12.4581C30.1404 12.3165 30.7775 11.9783 31.2494 11.4435C31.7213 10.9087 31.9572 10.2166 31.9572 9.36715C31.9572 8.51774 31.7056 8.09303 31.2022 8.09303C30.6045 8.09303 30.1404 8.60425 29.8101 9.6267C29.4955 10.6334 29.3382 11.5772 29.3382 12.4581Z" fill="black"/>
<path d="M26.0356 7.14927C26.0042 7.49533 25.8626 7.9515 25.6109 8.51778C25.0132 8.45486 24.4233 8.4234 23.8413 8.4234H23.7469C23.4166 12.3087 23.1099 15.1794 22.8267 17.0356C22.5436 18.8917 22.1739 20.1894 21.7178 20.9287C21.1515 20.913 20.5616 20.8344 19.9481 20.6928C19.3504 20.5669 18.9414 20.4332 18.7212 20.2917C19.0987 19.1276 19.4762 17.3738 19.8537 15.03C20.247 12.6862 20.4987 10.5234 20.6088 8.54138C20.1683 8.57284 19.6807 8.62789 19.1459 8.70654C19.0987 8.50205 19.0751 8.29756 19.0751 8.09307C19.0751 7.87285 19.1066 7.55825 19.1695 7.14927H20.6796C20.711 5.78077 20.7818 4.74259 20.8919 4.03474C21.0807 2.77634 21.5133 1.79322 22.1897 1.08537C22.8818 0.36179 23.7705 0 24.8559 0C25.548 0 26.0907 0.1573 26.4839 0.471899C26.8929 0.770768 27.0974 1.25053 27.0974 1.91119C27.0974 2.57185 26.7985 3.42913 26.2008 4.48304C25.6031 5.52122 24.8166 6.40997 23.8413 7.14927H26.0356ZM23.8885 5.66279C24.502 5.1437 24.9817 4.56956 25.3278 3.94036C25.6738 3.31116 25.8469 2.74488 25.8469 2.24152C25.8469 1.72243 25.6817 1.46289 25.3514 1.46289C24.6593 1.46289 24.2188 2.25725 24.0301 3.84598C23.9671 4.3808 23.9199 4.9864 23.8885 5.66279Z" fill="black"/>
<path d="M17.6014 8.32905C17.6014 8.98971 17.389 10.1301 16.9643 11.7503C16.5396 13.3548 16.3272 14.4087 16.3272 14.912C16.3272 15.3997 16.398 15.6435 16.5396 15.6435C16.634 15.6435 16.9957 15.4941 17.6249 15.1952L17.9081 15.0536L18.3092 15.8794C18.1676 16.0053 17.9789 16.1626 17.7429 16.3513C17.507 16.5401 17.0665 16.7996 16.4216 17.13C15.7767 17.4446 15.1789 17.6019 14.6284 17.6019C14.0778 17.6019 13.6453 17.4367 13.3307 17.1064C13.0161 16.7603 12.8588 16.3041 12.8588 15.7379C12.8588 15.1559 13.0554 14.1334 13.4486 12.6705C13.8419 11.1919 14.0385 10.2324 14.0385 9.79194C14.0385 9.13128 13.834 8.50994 13.425 7.92793L13.2127 7.64479L13.2363 7.33806C14.07 7.10211 15.4227 6.98413 17.2946 6.98413C17.4991 7.22008 17.6014 7.66839 17.6014 8.32905ZM14.9115 4.41228C14.5969 4.09768 14.4396 3.68084 14.4396 3.16175C14.4396 2.64266 14.652 2.18649 15.0767 1.79324C15.5171 1.39999 16.0205 1.20337 16.5868 1.20337C17.153 1.20337 17.5935 1.36067 17.9081 1.67527C18.2227 1.98987 18.38 2.40671 18.38 2.9258C18.38 3.42916 18.1519 3.87747 17.6957 4.27071C17.2553 4.66396 16.7598 4.86059 16.2092 4.86059C15.6587 4.86059 15.2261 4.71115 14.9115 4.41228Z" fill="black"/>
<path d="M11.5143 16.1861C11.3256 16.6738 11.0267 17.0592 10.6177 17.3423C10.2245 17.6254 9.75259 17.767 9.20204 17.767C8.66722 17.767 7.85712 17.4367 6.77175 16.776C5.70212 16.1154 4.84483 15.6907 4.1999 15.5019C3.77519 16.0682 3.29543 16.5401 2.76061 16.9176C2.22579 17.2951 1.85614 17.4839 1.65165 17.4839C1.49435 17.4839 1.17975 17.1457 0.707849 16.4693C0.23595 15.7772 0 15.2817 0 14.9828C0 14.8098 0.243815 14.5502 0.731444 14.2042C1.2348 13.8581 1.76176 13.6222 2.31231 13.4963C2.70556 12.5368 3.11453 11.1211 3.53924 9.24923C3.96395 7.36163 4.29428 5.41898 4.53023 3.42127C4.53023 3.16959 4.44372 2.87073 4.27069 2.52467C4.11339 2.16288 3.94822 1.87187 3.77519 1.65165L3.53924 1.32132L3.61003 0.967399C4.55383 0.699989 6.10323 0.566284 8.25824 0.566284C8.46273 0.912344 8.56497 1.4393 8.56497 2.14715C8.56497 2.855 8.36048 3.9089 7.9515 5.30887C7.54252 6.70884 6.97624 8.39195 6.25267 10.3582C5.54482 12.3087 5.13584 13.4649 5.02573 13.8267C5.08865 13.8424 5.28527 13.8974 5.6156 13.9918C5.94593 14.0862 6.15829 14.1491 6.25267 14.1806C6.36277 14.1963 6.56726 14.2435 6.86613 14.3221C7.165 14.3851 7.40095 14.4323 7.57398 14.4637C7.74701 14.4794 7.9751 14.503 8.25824 14.5345C8.74587 14.6132 9.20204 14.6525 9.62674 14.6525C10.0672 14.6525 10.3818 14.5424 10.5705 14.3221L11.2312 13.0952L12.0098 13.284C12.0098 14.3064 11.8447 15.2738 11.5143 16.1861Z" fill="black"/>
</svg>
