<svg width="436" height="154" viewBox="0 0 436 154" fill="none" xmlns="http://www.w3.org/2000/svg">
<path d="M435.764 81.5782C435.764 87.2603 433.239 91.9052 428.188 95.5128C423.228 99.1205 417.546 100.924 411.142 100.924C404.739 100.924 399.643 99.5715 395.855 96.8657C392.157 94.16 390.308 91.7699 390.308 89.6955C390.308 88.4328 391.886 86.4035 395.043 83.6075C398.2 80.7214 400.86 78.9627 403.025 78.3313C407.534 81.6684 411.232 86.9446 414.118 94.16C417.456 93.8894 419.124 92.311 419.124 89.4249C419.124 85.2761 415.471 79.4136 408.166 71.8375C400.86 64.1712 397.208 58.0833 397.208 53.5737C397.208 49.0641 399.237 45.5918 403.295 43.1566C407.354 40.6312 412.224 39.3685 417.907 39.3685C423.679 39.3685 428.008 40.4057 430.894 42.4801C433.78 44.4644 435.223 47.2152 435.223 50.7327C435.223 54.16 432.472 58.9401 426.971 65.0731C427.602 65.7045 428.414 66.5613 429.406 67.6436C430.398 68.6357 431.706 70.5748 433.329 73.461C434.953 76.3471 435.764 79.0529 435.764 81.5782ZM422.777 60.3381C426.565 57.0912 428.459 53.8894 428.459 50.7327C428.459 47.576 426.294 45.9976 421.965 45.9976C419.891 45.9976 418.177 46.4486 416.824 47.3505C415.471 48.1622 414.795 49.1092 414.795 50.1915C414.795 52.1757 416.779 54.9717 420.748 58.5793L422.777 60.3381Z" fill="black"/>
<path d="M328.913 99.7067H326.342C326.342 95.4677 327.605 87.3505 330.13 75.355C332.746 63.3595 334.054 56.55 334.054 54.9266C334.054 51.9503 332.791 48.7936 330.266 45.4565L329.048 43.833L329.183 42.0743C334.054 40.7214 341.855 40.045 352.588 40.045C353.761 41.5782 354.392 44.3742 354.482 48.4328C362.329 42.3899 368.958 39.3685 374.369 39.3685C377.616 39.3685 380.187 40.4959 382.081 42.7507C384.065 45.0055 385.057 47.8465 385.057 51.2738C385.057 54.6109 384.02 60.4283 381.945 68.7259C379.871 77.0235 378.834 82.6154 378.834 85.5016C378.834 88.2975 379.195 89.6955 379.916 89.6955C380.457 89.6955 382.351 88.8387 385.598 87.125L387.222 86.3133L389.657 91.0483C388.845 91.7699 387.763 92.6718 386.41 93.7541C385.057 94.8364 382.532 96.3246 378.834 98.2186C375.226 100.022 371.979 100.924 369.093 100.924C362.509 100.924 359.217 97.1814 359.217 89.6955C359.217 86.5388 360.209 80.7214 362.193 72.2434C364.268 63.7654 365.305 58.3088 365.305 55.8736C365.305 53.4384 364.538 52.2208 363.005 52.2208C360.39 52.2208 357.188 53.3482 353.4 55.603C353.129 57.1363 352.227 61.1949 350.694 67.7789C347.537 81.939 345.959 91.9503 345.959 97.8127C342.802 99.0754 337.12 99.7067 328.913 99.7067Z" fill="black"/>
<path d="M270.683 75.8961C270.683 64.6222 274.065 55.7383 280.83 49.2445C287.684 42.6605 295.441 39.3685 304.099 39.3685C309.42 39.3685 313.795 40.6763 317.222 43.2919C320.649 45.9074 322.363 49.4249 322.363 53.8443C322.363 58.1735 321.236 61.8262 318.981 64.8026C316.816 67.7789 314.155 70.0788 310.999 71.7022C304.595 74.8589 298.733 76.8432 293.411 77.6549L290.164 78.0607C290.796 86.5388 294.268 90.7778 300.582 90.7778C302.746 90.7778 305.046 90.2366 307.481 89.1543C309.916 88.072 311.811 86.9897 313.163 85.9074L315.193 84.284L318.44 88.6132C317.718 89.6053 316.275 90.9131 314.11 92.5365C311.946 94.16 309.916 95.5128 308.022 96.5951C302.791 99.4813 297.064 100.924 290.841 100.924C284.618 100.924 279.702 98.7146 276.095 94.2952C272.487 89.8759 270.683 83.7428 270.683 75.8961ZM290.029 71.4317C294.629 70.6199 298.282 68.6808 300.988 65.6143C303.693 62.5478 305.046 58.5793 305.046 53.709C305.046 48.8387 303.603 46.4035 300.717 46.4035C297.29 46.4035 294.629 49.3347 292.735 55.1972C290.931 60.9694 290.029 66.3809 290.029 71.4317Z" fill="black"/>
<path d="M264.327 92.8073C263.245 95.6032 261.531 97.8129 259.187 99.4364C256.932 101.06 254.226 101.872 251.069 101.872C248.003 101.872 243.358 99.9775 237.135 96.1895C231.002 92.4014 226.086 89.9662 222.388 88.8839C219.953 92.1308 217.202 94.8366 214.136 97.0012C211.069 99.1658 208.95 100.248 207.777 100.248C206.875 100.248 205.072 98.309 202.366 94.4307C199.66 90.4623 198.307 87.6212 198.307 85.9076C198.307 84.9155 199.705 83.4273 202.501 81.4431C205.387 79.4589 208.409 78.106 211.565 77.3845C213.82 71.8828 216.165 63.7656 218.6 53.0327C221.035 42.2098 222.929 31.0711 224.282 19.6167C224.282 18.1737 223.786 16.46 222.794 14.4758C221.892 12.4014 220.945 10.7329 219.953 9.47017L218.6 7.57615L219.006 5.54684C224.418 4.01358 233.301 3.24695 245.658 3.24695C246.83 5.23117 247.416 8.25259 247.416 12.3112C247.416 16.3698 246.244 22.4127 243.899 30.4397C241.554 38.4668 238.307 48.1173 234.158 59.3913C230.1 70.575 227.755 77.2041 227.123 79.2785C227.484 79.3687 228.612 79.6844 230.506 80.2255C232.4 80.7667 233.617 81.1274 234.158 81.3078C234.79 81.398 235.962 81.6686 237.676 82.1196C239.389 82.4803 240.742 82.7509 241.734 82.9313C242.727 83.0215 244.034 83.1568 245.658 83.3371C248.454 83.7881 251.069 84.0136 253.504 84.0136C256.03 84.0136 257.834 83.3822 258.916 82.1196L262.704 75.0846L267.168 76.1669C267.168 82.0294 266.221 87.5761 264.327 92.8073Z" fill="black"/>
<path d="M148.871 75.8961C148.871 64.6222 152.254 55.7383 159.018 49.2445C165.872 42.6605 173.629 39.3685 182.287 39.3685C187.609 39.3685 191.983 40.6763 195.41 43.2919C198.838 45.9074 200.551 49.4249 200.551 53.8443C200.551 58.1735 199.424 61.8262 197.169 64.8026C195.004 67.7789 192.344 70.0788 189.187 71.7022C182.783 74.8589 176.921 76.8432 171.6 77.6549L168.353 78.0607C168.984 86.5388 172.456 90.7778 178.77 90.7778C180.934 90.7778 183.234 90.2366 185.67 89.1543C188.105 88.072 189.999 86.9897 191.352 85.9074L193.381 84.284L196.628 88.6132C195.906 89.6053 194.463 90.9131 192.299 92.5365C190.134 94.16 188.105 95.5128 186.211 96.5951C180.98 99.4813 175.252 100.924 169.029 100.924C162.806 100.924 157.89 98.7146 154.283 94.2952C150.675 89.8759 148.871 83.7428 148.871 75.8961ZM168.217 71.4317C172.817 70.6199 176.47 68.6808 179.176 65.6143C181.881 62.5478 183.234 58.5793 183.234 53.709C183.234 48.8387 181.791 46.4035 178.905 46.4035C175.478 46.4035 172.817 49.3347 170.923 55.1972C169.119 60.9694 168.217 66.3809 168.217 71.4317Z" fill="black"/>
<path d="M149.281 40.9921C149.101 42.9763 148.289 45.5919 146.846 48.8388C143.419 48.478 140.037 48.2976 136.7 48.2976H136.159C134.264 70.575 132.506 87.0349 130.882 97.6776C129.259 108.32 127.139 115.761 124.524 120C121.277 119.91 117.895 119.459 114.377 118.647C110.95 117.926 108.605 117.159 107.342 116.347C109.507 109.673 111.671 99.6167 113.836 86.1781C116.091 72.7396 117.534 60.3382 118.165 48.9741C115.64 49.1544 112.844 49.4701 109.777 49.9211C109.507 48.7486 109.372 47.5761 109.372 46.4036C109.372 45.1409 109.552 43.3371 109.913 40.9921H118.571C118.752 33.1454 119.157 27.1928 119.789 23.1342C120.871 15.9188 123.351 10.2819 127.23 6.22323C131.198 2.07441 136.294 0 142.517 0C146.485 0 149.597 0.901916 151.852 2.70575C154.197 4.41939 155.369 7.17023 155.369 10.9583C155.369 14.7463 153.656 19.6618 150.228 25.7046C146.801 31.6573 142.292 36.7531 136.7 40.9921H149.281ZM136.97 32.469C140.488 29.4927 143.239 26.2007 145.223 22.593C147.207 18.9853 148.199 15.7384 148.199 12.8523C148.199 9.87598 147.252 8.38782 145.358 8.38782C141.39 8.38782 138.864 12.9425 137.782 22.0519C137.421 25.1184 137.151 28.5908 136.97 32.469Z" fill="black"/>
<path d="M100.922 47.7565C100.922 51.5445 99.704 58.0834 97.2688 67.3732C94.8336 76.5727 93.616 82.6155 93.616 85.5017C93.616 88.2976 94.0219 89.6956 94.8336 89.6956C95.3747 89.6956 97.4492 88.8388 101.057 87.1251L102.68 86.3134L104.98 91.0485C104.168 91.77 103.086 92.6719 101.733 93.7542C100.38 94.8365 97.855 96.3247 94.1572 98.2187C90.4593 100.023 87.032 100.924 83.8753 100.924C80.7186 100.924 78.2383 99.9774 76.4345 98.0834C74.6307 96.0992 73.7288 93.4836 73.7288 90.2367C73.7288 86.8997 74.8561 81.0372 77.1109 72.6494C79.3657 64.1714 80.4931 58.6697 80.4931 56.1443C80.4931 52.3563 79.3206 48.7937 76.9757 45.4566L75.7581 43.8331L75.8934 42.0744C80.6735 40.7215 88.43 40.0451 99.1628 40.0451C100.335 41.398 100.922 43.9684 100.922 47.7565ZM85.4988 25.2987C83.6949 23.4949 82.793 21.1048 82.793 18.1285C82.793 15.1522 84.0106 12.5366 86.4458 10.2818C88.9711 8.02705 91.8573 6.89966 95.1042 6.89966C98.3511 6.89966 100.876 7.80157 102.68 9.6054C104.484 11.4092 105.386 13.7993 105.386 16.7756C105.386 19.6618 104.078 22.2322 101.463 24.487C98.9373 26.7418 96.0963 27.8692 92.9396 27.8692C89.7829 27.8692 87.3026 27.0124 85.4988 25.2987Z" fill="black"/>
<path d="M66.0203 92.8073C64.938 95.6032 63.2243 97.8129 60.8794 99.4364C58.6246 101.06 55.9188 101.872 52.7621 101.872C49.6956 101.872 45.0507 99.9775 38.8275 96.1895C32.6945 92.4014 27.779 89.9662 24.0812 88.8839C21.646 92.1308 18.8952 94.8366 15.8286 97.0012C12.7621 99.1658 10.6426 100.248 9.47012 100.248C8.56821 100.248 6.76437 98.309 4.05862 94.4307C1.35287 90.4623 0 87.6212 0 85.9076C0 84.9155 1.39797 83.4273 4.19391 81.4431C7.08004 79.4589 10.1015 78.106 13.2582 77.3845C15.513 71.8828 17.8579 63.7656 20.2931 53.0327C22.7283 42.2098 24.6223 31.0711 25.9752 19.6167C25.9752 18.1737 25.4791 16.46 24.487 14.4758C23.5851 12.4014 22.6381 10.7329 21.646 9.47017L20.2931 7.57615L20.699 5.54684C26.1105 4.01358 34.9944 3.24695 47.3506 3.24695C48.5231 5.23117 49.1094 8.25259 49.1094 12.3112C49.1094 16.3698 47.9369 22.4127 45.5919 30.4397C43.2469 38.4668 40 48.1173 35.8512 59.3913C31.7926 70.575 29.4476 77.2041 28.8162 79.2785C29.177 79.3687 30.3044 79.6844 32.1984 80.2255C34.0924 80.7667 35.31 81.1274 35.8512 81.3078C36.4825 81.398 37.655 81.6686 39.3687 82.1196C41.0823 82.4803 42.4352 82.7509 43.4273 82.9313C44.4194 83.0215 45.7272 83.1568 47.3506 83.3371C50.1466 83.7881 52.7621 84.0136 55.1973 84.0136C57.7227 84.0136 59.5265 83.3822 60.6088 82.1196L64.3968 75.0846L68.8613 76.1669C68.8613 82.0294 67.9143 87.5761 66.0203 92.8073Z" fill="black"/>
<path d="M283.172 150.91C282.713 151.198 282.303 151.379 281.94 151.454C281.589 151.539 281.205 151.582 280.789 151.582C280.373 151.582 280.016 151.459 279.718 151.214C279.43 150.969 279.286 150.644 279.286 150.239C279.286 149.834 279.419 149.466 279.686 149.135C279.963 148.805 280.293 148.544 280.677 148.352C281.455 147.947 282.164 147.68 282.804 147.552L283.22 147.472C283.23 147.43 283.294 147.216 283.412 146.833C283.529 146.449 283.614 146.15 283.667 145.937C282.314 146.747 281.2 147.152 280.325 147.152C279.803 147.152 279.371 146.987 279.03 146.657C278.689 146.316 278.518 145.836 278.518 145.218C278.518 144.589 278.721 143.464 279.126 141.843C279.531 140.212 279.734 139.125 279.734 138.581C279.734 138.229 279.574 137.83 279.254 137.382L279.094 137.158L279.142 136.918C279.782 136.737 280.768 136.646 282.1 136.646C282.25 136.966 282.324 137.398 282.324 137.942C282.324 138.485 282.122 139.637 281.717 141.396C281.311 143.144 281.109 144.157 281.109 144.434C281.109 144.999 281.301 145.282 281.685 145.282C282.41 145.282 283.182 145.074 284.003 144.658C284.654 141.982 285.096 139.455 285.331 137.078C285.874 136.801 286.621 136.662 287.569 136.662H287.873C287.873 137.227 287.777 138.011 287.585 139.013C287.34 140.282 286.962 142.201 286.45 144.77C286.226 145.921 285.933 146.929 285.57 147.792C285.208 148.645 284.835 149.306 284.451 149.775C284.067 150.244 283.641 150.623 283.172 150.91ZM280.789 150.511C281.162 150.511 281.551 150.303 281.956 149.887C282.362 149.482 282.692 148.997 282.948 148.432C282.447 148.485 281.882 148.677 281.253 149.007C280.634 149.349 280.325 149.695 280.325 150.047C280.325 150.175 280.368 150.281 280.453 150.367C280.549 150.463 280.661 150.511 280.789 150.511ZM290.394 148.192C289.658 148.192 289.082 147.936 288.667 147.424C288.251 146.902 288.043 146.177 288.043 145.25C288.043 144.066 288.358 143.048 288.987 142.195C289.626 141.342 290.506 140.916 291.625 140.916L292.201 140.948C292.382 140.852 292.585 140.804 292.808 140.804C293.651 140.804 294.072 141.598 294.072 143.187C294.509 143.165 294.951 143.107 295.399 143.011L295.655 142.947L295.751 143.57C295.399 143.72 294.925 143.853 294.328 143.97L294.008 144.034C293.805 145.154 293.395 146.129 292.776 146.961C292.158 147.781 291.364 148.192 290.394 148.192ZM291.257 146.817C291.705 146.817 292.105 146.529 292.457 145.953C292.819 145.377 293.07 144.77 293.208 144.13C292.067 144.13 291.497 143.704 291.497 142.851C291.497 142.51 291.566 142.19 291.705 141.891L291.785 141.731C291.742 141.71 291.689 141.699 291.625 141.699C291.561 141.699 291.513 141.71 291.481 141.731C291.215 141.902 290.964 142.302 290.73 142.931C290.495 143.56 290.378 144.279 290.378 145.09C290.378 146.241 290.671 146.817 291.257 146.817ZM294.67 146.801C294.67 146.342 294.809 145.564 295.086 144.466C295.363 143.357 295.502 142.68 295.502 142.435C295.502 142.179 295.31 141.843 294.926 141.428L294.942 141.22C295.667 141.071 296.621 140.996 297.804 140.996C297.858 141.134 297.884 141.385 297.884 141.747C297.884 142.11 297.735 142.883 297.436 144.066C297.138 145.25 296.989 145.985 296.989 146.273C296.989 146.561 297.095 146.705 297.309 146.705C297.618 146.705 297.975 146.593 298.38 146.369C298.423 146.113 298.529 145.623 298.7 144.898C299.084 143.192 299.275 141.971 299.275 141.236C299.649 141.087 300.32 141.012 301.29 141.012H301.594C301.594 141.513 301.445 142.494 301.146 143.954C300.848 145.404 300.699 146.257 300.699 146.513C300.699 146.758 300.752 146.881 300.859 146.881C300.923 146.881 301.226 146.753 301.77 146.497L302.074 147.009C301.125 147.797 300.294 148.192 299.579 148.192C299.238 148.192 298.945 148.096 298.7 147.904C298.465 147.712 298.332 147.462 298.3 147.152C297.436 147.856 296.653 148.208 295.949 148.208C295.576 148.208 295.267 148.085 295.022 147.84C294.787 147.595 294.67 147.248 294.67 146.801ZM302.842 148.048H302.73C302.709 147.963 302.698 147.771 302.698 147.472C302.698 147.163 302.842 146.342 303.13 145.01C303.418 143.677 303.561 142.915 303.561 142.723C303.561 142.392 303.412 142.03 303.114 141.636L302.97 141.444L302.986 141.236C303.561 141.076 304.484 140.996 305.752 140.996C305.88 141.273 305.944 141.662 305.944 142.163C306.061 141.971 306.307 141.715 306.68 141.396C307.053 141.076 307.437 140.916 307.831 140.916C308.407 140.916 308.695 141.417 308.695 142.419C308.641 142.483 308.567 142.568 308.471 142.675C308.385 142.771 308.204 142.909 307.927 143.091C307.66 143.272 307.399 143.384 307.143 143.427C307.133 143.427 307.042 143.283 306.872 142.995C306.701 142.707 306.573 142.563 306.488 142.563C306.221 142.659 305.987 142.819 305.784 143.043C305.294 145.25 305.049 146.678 305.049 147.328C305.049 147.563 305.054 147.728 305.065 147.824C304.691 147.973 303.951 148.048 302.842 148.048ZM312.78 148.192C312.417 148.192 312.113 148.069 311.868 147.824C311.634 147.579 311.516 147.238 311.516 146.801C311.516 146.353 311.777 144.94 312.3 142.563C312.833 140.175 313.099 138.453 313.099 137.398L313.003 136.694C313.835 136.406 314.613 136.263 315.338 136.263C315.445 136.412 315.498 136.673 315.498 137.046C315.498 137.899 315.226 139.551 314.683 142.003C314.149 144.445 313.883 145.868 313.883 146.273C313.883 146.667 313.931 146.865 314.027 146.865L315.146 146.465L315.434 147.025C315.072 147.312 314.629 147.579 314.107 147.824C313.595 148.069 313.153 148.192 312.78 148.192ZM319.106 141.907C319.106 142.355 318.962 143.128 318.674 144.226C318.386 145.313 318.243 146.028 318.243 146.369C318.243 146.699 318.29 146.865 318.386 146.865C318.45 146.865 318.696 146.763 319.122 146.561L319.314 146.465L319.586 147.025C319.49 147.11 319.362 147.216 319.202 147.344C319.042 147.472 318.744 147.648 318.306 147.872C317.869 148.085 317.464 148.192 317.091 148.192C316.718 148.192 316.425 148.08 316.212 147.856C315.998 147.622 315.892 147.312 315.892 146.929C315.892 146.534 316.025 145.841 316.292 144.85C316.558 143.848 316.691 143.197 316.691 142.899C316.691 142.451 316.553 142.03 316.276 141.636L316.132 141.444L316.148 141.236C316.713 141.076 317.63 140.996 318.898 140.996C319.037 141.156 319.106 141.46 319.106 141.907ZM317.283 139.253C317.07 139.04 316.963 138.757 316.963 138.405C316.963 138.054 317.107 137.744 317.395 137.478C317.693 137.211 318.035 137.078 318.418 137.078C318.802 137.078 319.101 137.185 319.314 137.398C319.527 137.611 319.634 137.894 319.634 138.245C319.634 138.587 319.479 138.89 319.17 139.157C318.871 139.423 318.536 139.557 318.163 139.557C317.789 139.557 317.496 139.455 317.283 139.253ZM324.822 141.108C324.801 141.342 324.705 141.652 324.534 142.035C324.129 141.993 323.73 141.971 323.335 141.971H323.271C323.047 144.605 322.839 146.55 322.647 147.808C322.456 149.066 322.205 149.946 321.896 150.447C321.512 150.436 321.112 150.383 320.697 150.287C320.291 150.201 320.014 150.111 319.865 150.015C320.121 149.226 320.377 148.037 320.633 146.449C320.899 144.86 321.07 143.395 321.144 142.051C320.846 142.073 320.515 142.11 320.153 142.163C320.121 142.025 320.105 141.886 320.105 141.747C320.105 141.598 320.126 141.385 320.169 141.108H321.192C321.214 140.18 321.262 139.477 321.336 138.997C321.464 138.144 321.757 137.478 322.216 136.998C322.685 136.508 323.287 136.263 324.023 136.263C324.492 136.263 324.86 136.369 325.126 136.582C325.403 136.785 325.542 137.11 325.542 137.558C325.542 138.006 325.339 138.587 324.934 139.301C324.529 140.004 323.996 140.607 323.335 141.108H324.822ZM323.367 140.1C323.783 139.749 324.108 139.359 324.343 138.933C324.577 138.507 324.694 138.123 324.694 137.782C324.694 137.43 324.582 137.254 324.358 137.254C323.889 137.254 323.591 137.792 323.463 138.869C323.42 139.232 323.388 139.642 323.367 140.1ZM324.774 145.234C324.774 143.901 325.174 142.851 325.973 142.083C326.783 141.305 327.7 140.916 328.724 140.916C329.353 140.916 329.87 141.071 330.275 141.38C330.68 141.689 330.882 142.105 330.882 142.627C330.882 143.139 330.749 143.57 330.483 143.922C330.227 144.274 329.912 144.546 329.539 144.738C328.782 145.111 328.089 145.345 327.46 145.441L327.076 145.489C327.151 146.492 327.562 146.993 328.308 146.993C328.564 146.993 328.836 146.929 329.123 146.801C329.411 146.673 329.635 146.545 329.795 146.417L330.035 146.225L330.419 146.737C330.333 146.854 330.163 147.009 329.907 147.2C329.651 147.392 329.411 147.552 329.187 147.68C328.569 148.021 327.892 148.192 327.156 148.192C326.421 148.192 325.84 147.931 325.413 147.408C324.987 146.886 324.774 146.161 324.774 145.234ZM327.061 144.706C327.604 144.61 328.036 144.381 328.356 144.018C328.676 143.656 328.836 143.187 328.836 142.611C328.836 142.035 328.665 141.747 328.324 141.747C327.919 141.747 327.604 142.094 327.38 142.787C327.167 143.469 327.061 144.109 327.061 144.706ZM331.129 147.744C331.129 146.977 331.427 146.257 332.024 145.585C332.579 145.585 333.037 145.751 333.4 146.081C333.762 146.401 333.943 146.779 333.943 147.216C333.943 148.304 333.293 149.588 331.992 151.07L331.321 150.639C331.982 149.636 332.339 148.927 332.392 148.512L331.129 147.744ZM343.195 141.108C343.174 141.374 343.083 141.684 342.923 142.035C342.518 141.993 342.134 141.971 341.772 141.971H341.484C340.993 144.349 340.748 145.831 340.748 146.417C340.748 146.726 340.812 146.881 340.94 146.881C341.079 146.881 341.436 146.747 342.012 146.481L342.299 147.009C341.351 147.797 340.471 148.192 339.661 148.192C339.288 148.192 338.979 148.075 338.733 147.84C338.499 147.606 338.382 147.296 338.382 146.913C338.382 146.518 338.424 146.076 338.51 145.585C338.605 145.095 338.733 144.498 338.893 143.794C339.053 143.08 339.17 142.504 339.245 142.067C338.851 142.099 338.557 142.131 338.366 142.163C338.344 142.035 338.334 141.865 338.334 141.652C338.334 141.428 338.35 141.246 338.382 141.108H339.389C339.474 140.532 339.517 139.988 339.517 139.477L339.501 138.981V138.933C340.333 138.645 341.116 138.501 341.852 138.501C341.894 138.714 341.916 138.981 341.916 139.301C341.916 139.621 341.825 140.223 341.644 141.108H343.195ZM344.777 137.446C344.777 137.094 344.745 136.844 344.681 136.694C345.512 136.406 346.296 136.263 347.032 136.263C347.127 136.358 347.175 136.604 347.175 136.998C347.175 137.702 346.877 139.322 346.28 141.859C347.143 141.23 347.9 140.916 348.551 140.916C348.956 140.916 349.26 141.044 349.462 141.3C349.675 141.556 349.782 141.897 349.782 142.323C349.782 142.739 349.659 143.427 349.414 144.386C349.169 145.335 349.046 145.985 349.046 146.337C349.046 146.689 349.089 146.865 349.174 146.865C349.26 146.865 349.483 146.769 349.846 146.577L350.038 146.481L350.326 147.041C350.23 147.126 350.102 147.232 349.942 147.36C349.782 147.488 349.489 147.659 349.062 147.872C348.636 148.085 348.242 148.192 347.879 148.192C347.527 148.192 347.245 148.08 347.032 147.856C346.818 147.622 346.712 147.312 346.712 146.929C346.712 146.534 346.829 145.825 347.064 144.802C347.309 143.768 347.431 143.117 347.431 142.851C347.431 142.574 347.319 142.435 347.095 142.435C346.818 142.435 346.472 142.552 346.056 142.787C345.47 145.367 345.177 147.041 345.177 147.808C344.729 147.979 343.967 148.064 342.89 148.064C342.879 147.883 342.874 147.723 342.874 147.584C342.874 147.126 343.188 145.559 343.817 142.883C344.457 140.207 344.777 138.395 344.777 137.446ZM351.159 148.048H351.047C351.025 147.963 351.015 147.771 351.015 147.472C351.015 147.163 351.159 146.342 351.447 145.01C351.734 143.677 351.878 142.915 351.878 142.723C351.878 142.392 351.729 142.03 351.431 141.636L351.287 141.444L351.303 141.236C351.878 141.076 352.801 140.996 354.069 140.996C354.197 141.273 354.261 141.662 354.261 142.163C354.378 141.971 354.623 141.715 354.997 141.396C355.37 141.076 355.754 140.916 356.148 140.916C356.724 140.916 357.011 141.417 357.011 142.419C356.958 142.483 356.884 142.568 356.788 142.675C356.702 142.771 356.521 142.909 356.244 143.091C355.977 143.272 355.716 143.384 355.46 143.427C355.45 143.427 355.359 143.283 355.189 142.995C355.018 142.707 354.89 142.563 354.805 142.563C354.538 142.659 354.304 142.819 354.101 143.043C353.611 145.25 353.366 146.678 353.366 147.328C353.366 147.563 353.371 147.728 353.382 147.824C353.008 147.973 352.267 148.048 351.159 148.048ZM358.903 148.192C358.167 148.192 357.591 147.936 357.176 147.424C356.76 146.902 356.552 146.177 356.552 145.25C356.552 144.066 356.866 143.048 357.495 142.195C358.135 141.342 359.015 140.916 360.134 140.916L360.71 140.948C360.891 140.852 361.093 140.804 361.317 140.804C362.159 140.804 362.581 141.598 362.581 143.187C363.018 143.165 363.46 143.107 363.908 143.011L364.164 142.947L364.26 143.57C363.908 143.72 363.433 143.853 362.836 143.97L362.517 144.034C362.314 145.154 361.904 146.129 361.285 146.961C360.667 147.781 359.873 148.192 358.903 148.192ZM359.766 146.817C360.214 146.817 360.614 146.529 360.965 145.953C361.328 145.377 361.578 144.77 361.717 144.13C360.576 144.13 360.006 143.704 360.006 142.851C360.006 142.51 360.075 142.19 360.214 141.891L360.294 141.731C360.251 141.71 360.198 141.699 360.134 141.699C360.07 141.699 360.022 141.71 359.99 141.731C359.723 141.902 359.473 142.302 359.238 142.931C359.004 143.56 358.887 144.279 358.887 145.09C358.887 146.241 359.18 146.817 359.766 146.817ZM363.179 146.801C363.179 146.342 363.317 145.564 363.595 144.466C363.872 143.357 364.01 142.68 364.01 142.435C364.01 142.179 363.818 141.843 363.435 141.428L363.451 141.22C364.176 141.071 365.13 140.996 366.313 140.996C366.366 141.134 366.393 141.385 366.393 141.747C366.393 142.11 366.244 142.883 365.945 144.066C365.647 145.25 365.498 145.985 365.498 146.273C365.498 146.561 365.604 146.705 365.817 146.705C366.126 146.705 366.484 146.593 366.889 146.369C366.931 146.113 367.038 145.623 367.209 144.898C367.592 143.192 367.784 141.971 367.784 141.236C368.157 141.087 368.829 141.012 369.799 141.012H370.103C370.103 141.513 369.954 142.494 369.655 143.954C369.357 145.404 369.207 146.257 369.207 146.513C369.207 146.758 369.261 146.881 369.367 146.881C369.431 146.881 369.735 146.753 370.279 146.497L370.583 147.009C369.634 147.797 368.802 148.192 368.088 148.192C367.747 148.192 367.454 148.096 367.209 147.904C366.974 147.712 366.841 147.462 366.809 147.152C365.945 147.856 365.162 148.208 364.458 148.208C364.085 148.208 363.776 148.085 363.531 147.84C363.296 147.595 363.179 147.248 363.179 146.801ZM373.046 149.727C372.694 149.94 372.518 150.148 372.518 150.351C372.518 150.553 372.63 150.655 372.854 150.655C373.088 150.655 373.35 150.543 373.637 150.319C373.925 150.105 374.165 149.754 374.357 149.263C373.845 149.359 373.408 149.514 373.046 149.727ZM377.795 141.028C377.838 141.071 377.859 141.166 377.859 141.316C377.859 141.454 377.848 141.609 377.827 141.779C377.806 141.939 377.768 142.307 377.715 142.883C377.662 143.459 377.608 143.96 377.555 144.386C377.011 149.183 375.551 151.582 373.174 151.582C372.79 151.582 372.438 151.481 372.118 151.278C371.809 151.076 371.654 150.814 371.654 150.495C371.654 150.068 371.916 149.679 372.438 149.327C372.96 148.975 373.664 148.704 374.549 148.512C374.549 148.501 374.581 148.352 374.645 148.064C374.709 147.776 374.751 147.542 374.773 147.36C374.133 147.829 373.531 148.064 372.966 148.064C372.411 148.064 371.953 147.845 371.591 147.408C371.239 146.971 371.063 146.273 371.063 145.313C371.063 144.056 371.345 143.011 371.91 142.179C372.475 141.337 373.222 140.916 374.149 140.916C374.671 140.916 375.189 141.044 375.7 141.3C376.244 141.108 376.83 141.012 377.459 141.012L377.795 141.028ZM374.869 141.859C374.41 141.859 374.048 142.233 373.781 142.979C373.515 143.714 373.382 144.535 373.382 145.441C373.382 146.337 373.584 146.785 373.989 146.785C374.256 146.785 374.57 146.683 374.933 146.481C375.231 144.69 375.444 143.213 375.572 142.051C375.274 141.923 375.039 141.859 374.869 141.859ZM380.304 137.446C380.304 137.094 380.272 136.844 380.208 136.694C381.04 136.406 381.823 136.263 382.559 136.263C382.655 136.358 382.703 136.604 382.703 136.998C382.703 137.702 382.404 139.322 381.807 141.859C382.671 141.23 383.428 140.916 384.078 140.916C384.483 140.916 384.787 141.044 384.989 141.3C385.203 141.556 385.309 141.897 385.309 142.323C385.309 142.739 385.187 143.427 384.941 144.386C384.696 145.335 384.574 145.985 384.574 146.337C384.574 146.689 384.616 146.865 384.701 146.865C384.787 146.865 385.011 146.769 385.373 146.577L385.565 146.481L385.853 147.041C385.757 147.126 385.629 147.232 385.469 147.36C385.309 147.488 385.016 147.659 384.59 147.872C384.163 148.085 383.769 148.192 383.406 148.192C383.054 148.192 382.772 148.08 382.559 147.856C382.345 147.622 382.239 147.312 382.239 146.929C382.239 146.534 382.356 145.825 382.591 144.802C382.836 143.768 382.958 143.117 382.958 142.851C382.958 142.574 382.846 142.435 382.623 142.435C382.345 142.435 381.999 142.552 381.583 142.787C380.997 145.367 380.704 147.041 380.704 147.808C380.256 147.979 379.494 148.064 378.417 148.064C378.406 147.883 378.401 147.723 378.401 147.584C378.401 147.126 378.715 145.559 379.344 142.883C379.984 140.207 380.304 138.395 380.304 137.446ZM394.573 141.108C394.551 141.374 394.461 141.684 394.301 142.035C393.896 141.993 393.512 141.971 393.149 141.971H392.862C392.371 144.349 392.126 145.831 392.126 146.417C392.126 146.726 392.19 146.881 392.318 146.881C392.456 146.881 392.814 146.747 393.389 146.481L393.677 147.009C392.728 147.797 391.849 148.192 391.039 148.192C390.665 148.192 390.356 148.075 390.111 147.84C389.877 147.606 389.759 147.296 389.759 146.913C389.759 146.518 389.802 146.076 389.887 145.585C389.983 145.095 390.111 144.498 390.271 143.794C390.431 143.08 390.548 142.504 390.623 142.067C390.228 142.099 389.935 142.131 389.743 142.163C389.722 142.035 389.711 141.865 389.711 141.652C389.711 141.428 389.727 141.246 389.759 141.108H390.767C390.852 140.532 390.895 139.988 390.895 139.477L390.879 138.981V138.933C391.71 138.645 392.494 138.501 393.229 138.501C393.272 138.714 393.293 138.981 393.293 139.301C393.293 139.621 393.203 140.223 393.021 141.108H394.573ZM396.154 137.446C396.154 137.094 396.123 136.844 396.059 136.694C396.89 136.406 397.674 136.263 398.409 136.263C398.505 136.358 398.553 136.604 398.553 136.998C398.553 137.702 398.255 139.322 397.658 141.859C398.521 141.23 399.278 140.916 399.928 140.916C400.334 140.916 400.637 141.044 400.84 141.3C401.053 141.556 401.16 141.897 401.16 142.323C401.16 142.739 401.037 143.427 400.792 144.386C400.547 145.335 400.424 145.985 400.424 146.337C400.424 146.689 400.467 146.865 400.552 146.865C400.637 146.865 400.861 146.769 401.224 146.577L401.416 146.481L401.703 147.041C401.607 147.126 401.48 147.232 401.32 147.36C401.16 147.488 400.867 147.659 400.44 147.872C400.014 148.085 399.619 148.192 399.257 148.192C398.905 148.192 398.622 148.08 398.409 147.856C398.196 147.622 398.089 147.312 398.089 146.929C398.089 146.534 398.207 145.825 398.441 144.802C398.686 143.768 398.809 143.117 398.809 142.851C398.809 142.574 398.697 142.435 398.473 142.435C398.196 142.435 397.85 142.552 397.434 142.787C396.847 145.367 396.554 147.041 396.554 147.808C396.107 147.979 395.344 148.064 394.268 148.064C394.257 147.883 394.252 147.723 394.252 147.584C394.252 147.126 394.566 145.559 395.195 142.883C395.835 140.207 396.154 138.395 396.154 137.446ZM402.153 145.234C402.153 143.901 402.552 142.851 403.352 142.083C404.162 141.305 405.079 140.916 406.102 140.916C406.731 140.916 407.248 141.071 407.654 141.38C408.059 141.689 408.261 142.105 408.261 142.627C408.261 143.139 408.128 143.57 407.861 143.922C407.606 144.274 407.291 144.546 406.918 144.738C406.161 145.111 405.468 145.345 404.839 145.441L404.455 145.489C404.53 146.492 404.94 146.993 405.687 146.993C405.943 146.993 406.214 146.929 406.502 146.801C406.79 146.673 407.014 146.545 407.174 146.417L407.414 146.225L407.798 146.737C407.712 146.854 407.542 147.009 407.286 147.2C407.03 147.392 406.79 147.552 406.566 147.68C405.948 148.021 405.271 148.192 404.535 148.192C403.8 148.192 403.219 147.931 402.792 147.408C402.366 146.886 402.153 146.161 402.153 145.234ZM404.439 144.706C404.983 144.61 405.415 144.381 405.735 144.018C406.054 143.656 406.214 143.187 406.214 142.611C406.214 142.035 406.044 141.747 405.703 141.747C405.298 141.747 404.983 142.094 404.759 142.787C404.546 143.469 404.439 144.109 404.439 144.706ZM413.036 148.192C412.674 148.192 412.37 148.069 412.125 147.824C411.89 147.579 411.773 147.238 411.773 146.801C411.773 146.353 412.034 144.94 412.557 142.563C413.09 140.175 413.356 138.453 413.356 137.398L413.26 136.694C414.092 136.406 414.87 136.263 415.595 136.263C415.702 136.412 415.755 136.673 415.755 137.046C415.755 137.899 415.483 139.551 414.939 142.003C414.406 144.445 414.14 145.868 414.14 146.273C414.14 146.667 414.188 146.865 414.284 146.865L415.403 146.465L415.691 147.025C415.328 147.312 414.886 147.579 414.364 147.824C413.852 148.069 413.409 148.192 413.036 148.192ZM415.989 145.234C415.989 143.901 416.388 142.851 417.188 142.083C417.998 141.305 418.915 140.916 419.939 140.916C420.567 140.916 421.085 141.071 421.49 141.38C421.895 141.689 422.097 142.105 422.097 142.627C422.097 143.139 421.964 143.57 421.698 143.922C421.442 144.274 421.127 144.546 420.754 144.738C419.997 145.111 419.304 145.345 418.675 145.441L418.291 145.489C418.366 146.492 418.776 146.993 419.523 146.993C419.779 146.993 420.05 146.929 420.338 146.801C420.626 146.673 420.85 146.545 421.01 146.417L421.25 146.225L421.634 146.737C421.548 146.854 421.378 147.009 421.122 147.2C420.866 147.392 420.626 147.552 420.402 147.68C419.784 148.021 419.107 148.192 418.371 148.192C417.636 148.192 417.055 147.931 416.628 147.408C416.202 146.886 415.989 146.161 415.989 145.234ZM418.275 144.706C418.819 144.61 419.251 144.381 419.571 144.018C419.891 143.656 420.05 143.187 420.05 142.611C420.05 142.035 419.88 141.747 419.539 141.747C419.134 141.747 418.819 142.094 418.595 142.787C418.382 143.469 418.275 144.109 418.275 144.706ZM422.872 148.048H422.568C422.568 147.547 422.717 146.587 423.015 145.17C423.325 143.752 423.479 142.947 423.479 142.755C423.479 142.403 423.33 142.03 423.031 141.636L422.888 141.444L422.903 141.236C423.479 141.076 424.401 140.996 425.67 140.996C425.809 141.177 425.883 141.508 425.894 141.987C426.821 141.273 427.605 140.916 428.245 140.916C428.628 140.916 428.932 141.049 429.156 141.316C429.391 141.582 429.508 141.918 429.508 142.323C429.508 142.718 429.385 143.405 429.14 144.386C428.895 145.367 428.772 146.028 428.772 146.369C428.772 146.699 428.815 146.865 428.9 146.865C428.964 146.865 429.188 146.763 429.572 146.561L429.764 146.465L430.052 147.025C429.956 147.11 429.828 147.216 429.668 147.344C429.508 147.472 429.209 147.648 428.772 147.872C428.346 148.085 427.962 148.192 427.621 148.192C426.843 148.192 426.454 147.749 426.454 146.865C426.454 146.492 426.571 145.804 426.805 144.802C427.051 143.8 427.173 143.155 427.173 142.867C427.173 142.579 427.083 142.435 426.901 142.435C426.592 142.435 426.214 142.568 425.766 142.835C425.734 143.016 425.627 143.496 425.446 144.274C425.073 145.948 424.886 147.131 424.886 147.824C424.513 147.973 423.842 148.048 422.872 148.048ZM435.501 145.905C435.501 146.577 435.203 147.126 434.606 147.552C434.02 147.979 433.348 148.192 432.591 148.192C431.834 148.192 431.232 148.032 430.784 147.712C430.347 147.392 430.128 147.11 430.128 146.865C430.128 146.715 430.315 146.476 430.688 146.145C431.061 145.804 431.376 145.596 431.632 145.521C432.165 145.916 432.602 146.539 432.943 147.392C433.337 147.36 433.535 147.174 433.535 146.833C433.535 146.342 433.103 145.649 432.239 144.754C431.376 143.848 430.944 143.128 430.944 142.595C430.944 142.062 431.184 141.652 431.664 141.364C432.143 141.065 432.719 140.916 433.391 140.916C434.073 140.916 434.585 141.039 434.926 141.284C435.267 141.518 435.438 141.843 435.438 142.259C435.438 142.664 435.112 143.229 434.462 143.954C434.537 144.029 434.633 144.13 434.75 144.258C434.867 144.375 435.022 144.605 435.214 144.946C435.406 145.287 435.501 145.607 435.501 145.905ZM433.966 143.395C434.414 143.011 434.638 142.632 434.638 142.259C434.638 141.886 434.382 141.699 433.87 141.699C433.625 141.699 433.423 141.753 433.263 141.859C433.103 141.955 433.023 142.067 433.023 142.195C433.023 142.43 433.257 142.76 433.726 143.187L433.966 143.395Z" fill="black"/>
</svg>
