<svg width="448" height="98" viewBox="0 0 448 98" fill="none" xmlns="http://www.w3.org/2000/svg">
<path d="M37.784 63.288H36.968C36.968 61.368 37.864 56.472 39.656 48.6C41.448 40.728 42.344 36.168 42.344 34.92C42.344 34.376 42.168 33.768 41.816 33.096C41.496 32.424 41.176 31.896 40.856 31.512L40.376 30.888L40.52 29.928C42.504 29.256 45.96 28.92 50.888 28.92C51.464 30.136 51.752 31.512 51.752 33.048V33.144C55.592 30.328 58.952 28.92 61.832 28.92C63.528 28.92 64.92 29.432 66.008 30.456C67.096 31.448 67.64 32.888 67.64 34.776C67.64 36.632 66.904 40.392 65.432 46.056C63.96 51.72 63.224 55.176 63.224 56.424C63.224 57.64 63.432 58.248 63.848 58.248C64.424 58.248 65.288 58.04 66.44 57.624L67.448 60.36C64.312 62.504 61.4 63.576 58.712 63.576C57.176 63.576 55.992 63.176 55.16 62.376C54.36 61.544 53.96 60.184 53.96 58.296C53.96 56.408 54.648 52.824 56.024 47.544C57.432 42.232 58.136 38.936 58.136 37.656C58.136 36.024 57.416 35.208 55.976 35.208C54.92 35.208 53.336 35.864 51.224 37.176C50.936 38.712 50.328 41.368 49.4 45.144C47.352 53.752 46.328 59.384 46.328 62.04C44.92 62.872 42.072 63.288 37.784 63.288ZM81.0058 45C81.0058 46.408 80.6058 48.6 79.8058 51.576C79.0058 54.52 78.6058 56.44 78.6058 57.336C78.6058 58.232 78.7818 58.68 79.1338 58.68C79.4858 58.68 80.1258 58.52 81.0538 58.2L81.4858 58.008L82.3498 60.408C81.2618 61.24 79.9018 61.976 78.2698 62.616C76.6698 63.256 75.2138 63.576 73.9018 63.576C72.5898 63.576 71.5498 63.208 70.7818 62.472C70.0458 61.736 69.6777 60.68 69.6777 59.304C69.6777 57.896 70.0618 55.768 70.8298 52.92C71.6298 50.04 72.0298 48.216 72.0298 47.448C72.0298 46.264 71.6138 45.144 70.7818 44.088L70.3978 43.56L70.5418 42.744C72.2058 42.232 75.4378 41.976 80.2378 41.976C80.7498 42.552 81.0058 43.56 81.0058 45ZM77.4058 38.232C75.9658 38.232 74.8298 37.848 73.9978 37.08C73.1978 36.312 72.7978 35.336 72.7978 34.152C72.7978 32.936 73.2938 31.928 74.2858 31.128C75.3098 30.296 76.5418 29.88 77.9818 29.88C79.4218 29.88 80.5418 30.216 81.3418 30.888C82.1418 31.56 82.5418 32.504 82.5418 33.72C82.5418 34.936 82.0458 35.992 81.0538 36.888C80.0938 37.784 78.8778 38.232 77.4058 38.232ZM96.0204 44.952C95.0284 44.952 94.1804 45.832 93.4764 47.592C92.7724 49.352 92.4204 51.128 92.4204 52.92C92.4204 56.856 93.5564 58.824 95.8284 58.824C97.2684 58.824 98.9004 58.136 100.724 56.76L102.26 58.872C100.916 60.344 99.3004 61.496 97.4124 62.328C95.5564 63.16 93.7004 63.576 91.8444 63.576C89.3484 63.576 87.3164 62.824 85.7484 61.32C84.2124 59.784 83.4444 57.48 83.4444 54.408C83.4444 50.696 84.5804 47.656 86.8524 45.288C89.1564 42.92 92.1644 41.736 95.8764 41.736C98.2764 41.736 100.164 42.232 101.54 43.224C102.916 44.184 103.604 45.416 103.604 46.92C103.604 48.392 103.156 49.672 102.26 50.76C101.204 50.76 100.052 50.568 98.8044 50.184C97.5884 49.768 96.6124 49.256 95.8764 48.648L96.5964 45.048C96.4044 44.984 96.2124 44.952 96.0204 44.952ZM103.788 54.312C103.788 50.344 104.988 47.256 107.388 45.048C109.82 42.84 112.812 41.736 116.364 41.736C118.828 41.736 120.796 42.28 122.268 43.368C123.772 44.424 124.524 45.848 124.524 47.64C124.524 48.952 124.124 50.12 123.324 51.144C122.524 52.168 121.548 52.952 120.396 53.496C117.964 54.584 115.852 55.24 114.06 55.464L112.86 55.608C113.212 57.72 114.268 58.776 116.028 58.776C116.796 58.776 117.644 58.616 118.572 58.296C119.5 57.944 120.236 57.592 120.78 57.24L121.596 56.76L123.132 58.824C123.132 58.824 122.956 59 122.604 59.352C122.412 59.544 121.948 59.928 121.212 60.504C120.508 61.048 119.756 61.528 118.956 61.944C118.188 62.36 117.196 62.728 115.98 63.048C114.764 63.4 113.548 63.576 112.332 63.576C109.612 63.576 107.5 62.792 105.996 61.224C104.524 59.624 103.788 57.32 103.788 54.312ZM112.668 52.44C113.596 52.312 114.524 51.56 115.452 50.184C116.38 48.776 116.844 47.608 116.844 46.68C116.844 45.72 116.572 45.24 116.028 45.24C115.228 45.24 114.492 45.864 113.82 47.112C113.148 48.36 112.764 50.136 112.668 52.44ZM151.2 46.008L147.072 45.672C145.792 51.4 145.088 54.728 144.96 55.656C144.864 56.584 144.816 57.352 144.816 57.96C144.816 58.536 145.008 58.824 145.392 58.824C145.84 58.824 146.688 58.536 147.936 57.96L149.088 60.264C148.064 61.192 146.768 61.976 145.2 62.616C143.632 63.256 142.112 63.576 140.64 63.576C139.2 63.576 138.048 63.208 137.184 62.472C136.32 61.704 135.888 60.632 135.888 59.256C135.888 57.88 136.288 55.672 137.088 52.632C137.888 49.592 138.416 47.336 138.672 45.864C137.904 45.928 136.768 46.04 135.264 46.2C135.136 45.528 135.072 44.904 135.072 44.328C135.072 43.72 135.152 43.048 135.312 42.312H139.152C139.184 41.896 139.2 40.504 139.2 38.136L139.104 36.168C142.208 35.144 145.168 34.632 147.984 34.632C148.208 35.144 148.32 36.04 148.32 37.32C148.32 38.568 148.112 40.232 147.696 42.312H152.016C152.016 43.624 151.744 44.856 151.2 46.008ZM158.587 63.576C156.091 63.576 154.123 62.792 152.683 61.224C151.243 59.624 150.523 57.384 150.523 54.504C150.523 50.984 151.563 48.008 153.643 45.576C155.723 43.112 158.459 41.88 161.851 41.88L164.011 42.072C164.779 41.848 165.499 41.736 166.171 41.736C167.771 41.736 168.907 42.28 169.579 43.368C170.283 44.456 170.683 46.008 170.779 48.024C172.123 47.96 173.403 47.752 174.619 47.4L175.291 47.208C175.515 47.432 175.675 48.104 175.771 49.224L175.819 49.752C174.379 50.488 172.619 51.064 170.539 51.48C169.835 54.872 168.443 57.736 166.363 60.072C164.283 62.408 161.691 63.576 158.587 63.576ZM159.547 54.312C159.547 57.288 160.299 58.776 161.803 58.776C162.859 58.776 163.931 58.104 165.019 56.76C166.139 55.416 166.907 53.784 167.323 51.864C164.059 51.864 162.427 50.296 162.427 47.16C162.427 46.616 162.475 46.056 162.571 45.48C162.251 45.48 162.011 45.528 161.851 45.624C161.307 46.2 160.779 47.368 160.267 49.128C159.787 50.856 159.547 52.584 159.547 54.312ZM198.258 56.52C198.258 58.504 197.33 60.184 195.474 61.56C193.65 62.904 191.506 63.576 189.042 63.576C186.578 63.576 184.546 63.16 182.946 62.328C181.378 61.496 180.594 60.712 180.594 59.976C180.594 59.208 181.074 58.248 182.034 57.096C183.026 55.912 184.034 55.224 185.058 55.032C186.53 55.832 187.858 57.608 189.042 60.36C189.97 60.36 190.434 60.056 190.434 59.448C190.434 59 190.306 58.584 190.05 58.2C189.794 57.816 189.602 57.512 189.474 57.288C189.346 57.064 189.122 56.76 188.802 56.376C188.482 55.96 188.242 55.656 188.082 55.464C187.282 54.504 186.562 53.624 185.922 52.824C184.386 50.904 183.618 49.224 183.618 47.784C183.618 46.312 184.082 45.112 185.01 44.184C186.61 42.552 188.962 41.736 192.066 41.736C194.018 41.736 195.57 42.12 196.722 42.888C197.874 43.624 198.45 44.744 198.45 46.248C198.45 47.72 197.57 49.416 195.81 51.336C197.442 53.224 198.258 54.952 198.258 56.52ZM195.042 47.736C195.426 47.128 195.618 46.584 195.618 46.104C195.618 45.624 195.41 45.256 194.994 45C194.578 44.744 194.082 44.616 193.506 44.616C192.93 44.616 192.482 44.76 192.162 45.048C191.874 45.304 191.73 45.656 191.73 46.104C191.73 46.552 192.418 47.544 193.794 49.08C194.242 48.76 194.658 48.312 195.042 47.736ZM200.023 54.312C200.023 50.344 201.223 47.256 203.623 45.048C206.055 42.84 209.047 41.736 212.599 41.736C215.063 41.736 217.031 42.28 218.503 43.368C220.007 44.424 220.759 45.848 220.759 47.64C220.759 48.952 220.359 50.12 219.559 51.144C218.759 52.168 217.783 52.952 216.631 53.496C214.199 54.584 212.087 55.24 210.295 55.464L209.095 55.608C209.447 57.72 210.503 58.776 212.263 58.776C213.031 58.776 213.879 58.616 214.807 58.296C215.735 57.944 216.471 57.592 217.015 57.24L217.831 56.76L219.367 58.824C219.367 58.824 219.191 59 218.839 59.352C218.647 59.544 218.183 59.928 217.447 60.504C216.743 61.048 215.991 61.528 215.191 61.944C214.423 62.36 213.431 62.728 212.215 63.048C210.999 63.4 209.783 63.576 208.567 63.576C205.847 63.576 203.735 62.792 202.23 61.224C200.759 59.624 200.023 57.32 200.023 54.312ZM208.903 52.44C209.831 52.312 210.759 51.56 211.687 50.184C212.615 48.776 213.079 47.608 213.079 46.68C213.079 45.72 212.807 45.24 212.263 45.24C211.463 45.24 210.727 45.864 210.055 47.112C209.383 48.36 208.999 50.136 208.903 52.44ZM220.929 54.312C220.929 50.344 222.129 47.256 224.529 45.048C226.961 42.84 229.953 41.736 233.505 41.736C235.969 41.736 237.937 42.28 239.409 43.368C240.913 44.424 241.665 45.848 241.665 47.64C241.665 48.952 241.265 50.12 240.465 51.144C239.665 52.168 238.689 52.952 237.537 53.496C235.105 54.584 232.993 55.24 231.201 55.464L230.001 55.608C230.353 57.72 231.409 58.776 233.169 58.776C233.937 58.776 234.785 58.616 235.713 58.296C236.641 57.944 237.377 57.592 237.921 57.24L238.737 56.76L240.273 58.824C240.273 58.824 240.097 59 239.745 59.352C239.553 59.544 239.089 59.928 238.353 60.504C237.649 61.048 236.897 61.528 236.097 61.944C235.329 62.36 234.337 62.728 233.121 63.048C231.905 63.4 230.689 63.576 229.473 63.576C226.753 63.576 224.641 62.792 223.137 61.224C221.665 59.624 220.929 57.32 220.929 54.312ZM229.809 52.44C230.737 52.312 231.665 51.56 232.593 50.184C233.521 48.776 233.985 47.608 233.985 46.68C233.985 45.72 233.713 45.24 233.169 45.24C232.369 45.24 231.633 45.864 230.961 47.112C230.289 48.36 229.905 50.136 229.809 52.44ZM274.436 42.072H274.82C274.66 42.904 274.388 44.696 274.004 47.448C273.14 53.72 272.212 58.456 271.22 61.656C268.756 69.72 264.804 73.752 259.364 73.752C257.732 73.752 256.404 73.4 255.38 72.696C254.388 72.024 253.892 71.128 253.892 70.008C253.892 68.92 254.148 68.008 254.66 67.272C255.204 66.568 255.972 65.976 256.964 65.496C258.66 64.664 260.74 63.976 263.204 63.432C263.46 62.216 263.62 61.432 263.684 61.08C261.188 62.424 258.82 63.096 256.58 63.096C253.508 63.096 251.972 61.592 251.972 58.584C251.972 57.528 252.324 55.464 253.028 52.392C253.732 49.288 254.084 47.144 254.084 45.96C254.084 44.776 254.004 43.896 253.844 43.32C257.62 42.52 260.548 42.12 262.628 42.12C262.884 42.504 263.012 43.272 263.012 44.424C263.012 45.544 262.644 47.736 261.908 51C261.204 54.264 260.852 56.184 260.852 56.76C260.852 57.752 261.332 58.248 262.292 58.248C262.836 58.248 263.46 58.104 264.164 57.816C264.42 56.184 264.772 53.704 265.22 50.376C265.7 47.016 266.036 44.712 266.228 43.464C267.06 43.08 268.308 42.76 269.972 42.504C271.668 42.216 273.156 42.072 274.436 42.072ZM257.3 69.096C257.3 69.832 257.78 70.2 258.74 70.2C259.22 70.2 259.844 69.864 260.612 69.192C261.412 68.552 262.052 67.592 262.532 66.312C259.044 66.92 257.3 67.848 257.3 69.096ZM283.743 63.576C281.247 63.576 279.279 62.792 277.839 61.224C276.399 59.624 275.679 57.384 275.679 54.504C275.679 50.984 276.719 48.008 278.799 45.576C280.879 43.112 283.615 41.88 287.007 41.88L289.167 42.072C289.935 41.848 290.655 41.736 291.327 41.736C292.927 41.736 294.063 42.28 294.735 43.368C295.439 44.456 295.839 46.008 295.935 48.024C297.279 47.96 298.559 47.752 299.775 47.4L300.447 47.208C300.671 47.432 300.831 48.104 300.927 49.224L300.975 49.752C299.535 50.488 297.775 51.064 295.695 51.48C294.991 54.872 293.599 57.736 291.519 60.072C289.439 62.408 286.847 63.576 283.743 63.576ZM284.703 54.312C284.703 57.288 285.455 58.776 286.959 58.776C288.015 58.776 289.087 58.104 290.175 56.76C291.295 55.416 292.063 53.784 292.479 51.864C289.215 51.864 287.583 50.296 287.583 47.16C287.583 46.616 287.631 46.056 287.727 45.48C287.407 45.48 287.167 45.528 287.007 45.624C286.463 46.2 285.935 47.368 285.423 49.128C284.943 50.856 284.703 52.584 284.703 54.312ZM297.352 59.112C297.352 57.768 297.768 55.56 298.6 52.488C299.464 49.416 299.896 47.528 299.896 46.824C299.896 46.12 299.32 45.096 298.168 43.752L298.264 43.032C301.176 42.392 304.584 42.072 308.488 42.072C308.744 42.616 308.872 43.48 308.872 44.664C308.872 45.848 308.424 48.088 307.528 51.384C306.664 54.68 306.232 56.632 306.232 57.24C306.232 58.072 306.632 58.488 307.432 58.488C307.976 58.488 308.664 58.28 309.496 57.864C309.592 57.352 309.88 56.008 310.36 53.832C311.48 49 312.04 45.384 312.04 42.984C313.512 42.344 316.024 42.024 319.576 42.024H320.872C320.872 43.464 320.44 46.28 319.576 50.472C318.744 54.664 318.312 57.08 318.28 57.72C318.28 58.36 318.424 58.68 318.712 58.68L321.064 58.056L321.928 60.456C321 61.192 319.656 61.896 317.896 62.568C316.136 63.24 314.584 63.576 313.24 63.576C311.256 63.576 310.024 62.776 309.544 61.176C306.888 62.776 304.344 63.576 301.912 63.576C298.872 63.576 297.352 62.088 297.352 59.112ZM356.161 43.56C355.489 45.64 354.913 48.12 354.433 51C353.953 53.848 353.713 55.848 353.713 57C353.713 58.12 353.889 58.68 354.241 58.68L356.641 58.008L357.505 60.408C356.481 61.208 355.169 61.944 353.569 62.616C352.001 63.256 350.609 63.576 349.393 63.576C347.313 63.576 346.001 62.68 345.457 60.888C342.929 62.68 340.689 63.576 338.737 63.576C336.817 63.576 335.329 62.872 334.273 61.464C333.217 60.056 332.689 58.04 332.689 55.416C332.689 51.8 333.617 48.616 335.473 45.864C337.329 43.112 339.777 41.736 342.817 41.736C344.481 41.736 346.177 42.2 347.905 43.128C348.161 42.552 348.369 42.136 348.529 41.88C350.833 41.88 353.377 42.44 356.161 43.56ZM341.713 54.84C341.713 56.44 341.825 57.448 342.049 57.864C342.273 58.28 342.689 58.488 343.297 58.488C343.905 58.488 344.497 58.248 345.073 57.768C345.201 54.056 345.809 50.168 346.897 46.104C346.417 45.816 345.857 45.672 345.217 45.672C344.609 45.672 344.049 46.024 343.537 46.728C343.057 47.432 342.689 48.312 342.433 49.368C341.953 51.384 341.713 53.208 341.713 54.84ZM370.285 60.936C368.045 62.152 366.045 62.76 364.285 62.76C362.557 62.76 361.101 62.072 359.917 60.696C358.765 59.288 358.189 57.208 358.189 54.456C358.189 50.776 359.181 47.736 361.165 45.336C363.181 42.936 365.581 41.736 368.365 41.736C369.709 41.736 371.229 42.104 372.925 42.84C374.909 42.232 377.165 41.928 379.693 41.928H380.509C380.669 42.248 380.749 42.968 380.749 44.088C380.749 45.176 380.541 47.336 380.125 50.568C379.741 53.8 379.309 56.504 378.829 58.68C377.805 63.32 376.205 66.984 374.029 69.672C371.885 72.392 369.181 73.752 365.917 73.752C364.317 73.752 363.005 73.4 361.981 72.696C360.989 71.992 360.493 71.096 360.493 70.008C360.493 68.92 360.749 68.008 361.261 67.272C361.805 66.568 362.573 65.976 363.565 65.496C365.261 64.664 367.341 63.976 369.805 63.432L370.285 60.936ZM370.573 45.624C369.453 45.624 368.589 46.584 367.981 48.504C367.405 50.424 367.117 52.504 367.117 54.744C367.117 56.984 367.645 58.104 368.701 58.104C369.149 58.104 369.805 57.88 370.669 57.432C370.925 54.84 371.341 51 371.917 45.912C371.437 45.72 370.989 45.624 370.573 45.624ZM365.101 70.2C365.709 70.2 366.397 69.896 367.165 69.288C367.965 68.68 368.621 67.688 369.133 66.312C365.645 66.92 363.901 67.848 363.901 69.096C363.965 69.832 364.365 70.2 365.101 70.2ZM406.036 43.56C405.364 45.64 404.788 48.12 404.308 51C403.828 53.848 403.588 55.848 403.588 57C403.588 58.12 403.764 58.68 404.116 58.68L406.516 58.008L407.38 60.408C406.356 61.208 405.044 61.944 403.444 62.616C401.876 63.256 400.484 63.576 399.268 63.576C397.188 63.576 395.876 62.68 395.332 60.888C392.804 62.68 390.564 63.576 388.612 63.576C386.692 63.576 385.204 62.872 384.148 61.464C383.092 60.056 382.564 58.04 382.564 55.416C382.564 51.8 383.492 48.616 385.348 45.864C387.204 43.112 389.652 41.736 392.692 41.736C394.356 41.736 396.052 42.2 397.78 43.128C398.036 42.552 398.244 42.136 398.404 41.88C400.708 41.88 403.252 42.44 406.036 43.56ZM391.588 54.84C391.588 56.44 391.7 57.448 391.924 57.864C392.148 58.28 392.564 58.488 393.172 58.488C393.78 58.488 394.372 58.248 394.948 57.768C395.076 54.056 395.684 50.168 396.772 46.104C396.292 45.816 395.732 45.672 395.092 45.672C394.484 45.672 393.924 46.024 393.412 46.728C392.932 47.432 392.564 48.312 392.308 49.368C391.828 51.384 391.588 53.208 391.588 54.84ZM419.584 45C419.584 46.408 419.184 48.6 418.384 51.576C417.584 54.52 417.184 56.44 417.184 57.336C417.184 58.232 417.36 58.68 417.712 58.68C418.064 58.68 418.704 58.52 419.632 58.2L420.064 58.008L420.928 60.408C419.84 61.24 418.48 61.976 416.848 62.616C415.248 63.256 413.792 63.576 412.48 63.576C411.168 63.576 410.128 63.208 409.36 62.472C408.624 61.736 408.256 60.68 408.256 59.304C408.256 57.896 408.64 55.768 409.408 52.92C410.208 50.04 410.608 48.216 410.608 47.448C410.608 46.264 410.192 45.144 409.36 44.088L408.976 43.56L409.12 42.744C410.784 42.232 414.016 41.976 418.816 41.976C419.328 42.552 419.584 43.56 419.584 45ZM415.984 38.232C414.544 38.232 413.408 37.848 412.576 37.08C411.776 36.312 411.376 35.336 411.376 34.152C411.376 32.936 411.872 31.928 412.864 31.128C413.888 30.296 415.12 29.88 416.56 29.88C418 29.88 419.12 30.216 419.92 30.888C420.72 31.56 421.12 32.504 421.12 33.72C421.12 34.936 420.624 35.992 419.632 36.888C418.672 37.784 417.456 38.232 415.984 38.232ZM423.559 63.288H422.743C422.743 61.304 423.191 58.296 424.087 54.264C425.015 50.232 425.479 47.912 425.479 47.304C425.479 46.696 425.335 46.104 425.047 45.528C424.759 44.952 424.471 44.52 424.183 44.232L423.751 43.8L423.847 43.08C425.735 42.472 429.031 42.168 433.734 42.168C434.055 42.904 434.279 43.672 434.407 44.472C437.319 42.68 439.767 41.784 441.751 41.784C443.095 41.784 444.151 42.232 444.919 43.128C445.687 43.992 446.071 45.048 446.071 46.296C446.071 47.512 445.719 49.48 445.015 52.2C444.311 54.92 443.959 56.696 443.959 57.528C443.959 58.328 444.071 58.728 444.295 58.728L446.839 58.056L447.703 60.456C446.679 61.224 445.335 61.944 443.671 62.616C442.039 63.256 440.535 63.576 439.159 63.576C436.439 63.576 435.079 62.168 435.079 59.352C435.079 58.136 435.415 56.152 436.087 53.4C436.759 50.648 437.095 48.936 437.095 48.264C437.095 47.56 436.871 47.208 436.423 47.208C435.847 47.208 435.079 47.528 434.119 48.168C433.991 48.744 433.671 50.136 433.159 52.344C432.135 56.984 431.623 60.328 431.623 62.376C430.055 62.984 427.367 63.288 423.559 63.288Z" fill="#1A1A1A"/>
<line x1="5" y1="5" x2="5" y2="93" stroke="black" stroke-width="10" stroke-linecap="round"/>
</svg>
